<svg xmlns="http://www.w3.org/2000/svg" xmlns:xlink="http://www.w3.org/1999/xlink" xmlns:lucid="lucid" width="1478.28" height="1677.9"><g transform="translate(-343.7224835615018 -84.10479721150003)" lucid:page-tab-id="0_0"><path d="M0 0h2000v2000H0z" fill="#fff"/><path d="M1230.9 86.1c22.08 0 40 17.9 40 40s-17.92 40-40 40H929.1c-22.08 0-40-17.9-40-40s17.92-40 40-40z" stroke="#000" stroke-width="4" fill="#fff"/><use xlink:href="#a" transform="matrix(1,0,0,1,894.1111460350163,91.10479721150003) translate(150.431640625 45.451388888888886)"/><path d="M880 428.98a6 6 0 0 1 6-6h388a6 6 0 0 1 6 6V592.5a6 6 0 0 1-6 6H886a6 6 0 0 1-6-6z" stroke="#000" stroke-width="4" fill="#fff"/><use xlink:href="#b" transform="matrix(1,0,0,1,892,434.98117) translate(47.86328125 58.638888888888886)"/><use xlink:href="#c" transform="matrix(1,0,0,1,892,434.98117) translate(133.92013888888889 58.638888888888886)"/><use xlink:href="#d" transform="matrix(1,0,0,1,892,434.98117) translate(33.667317708333314 115.10373263888889)"/><use xlink:href="#e" transform="matrix(1,0,0,1,892,434.98117) translate(173.48502604166666 115.10373263888889)"/><path d="M1521.2 649.38a7.8 7.8 0 0 1 7.54-5.8H1814a4.6 4.6 0 0 1 4.45 5.8l-39.65 148.7a7.8 7.8 0 0 1-7.54 5.78H1486a4.6 4.6 0 0 1-4.45-5.8z" stroke="#000" stroke-width="4" fill="#fff"/><use xlink:href="#f" transform="matrix(1,0,0,1,1485.0000000000007,648.5785509375) translate(55.16993055555558 58.451388888888886)"/><use xlink:href="#g" transform="matrix(1,0,0,1,1485.0000000000007,648.5785509375) translate(187.33138888888888 58.451388888888886)"/><use xlink:href="#h" transform="matrix(1,0,0,1,1485.0000000000007,648.5785509375) translate(73.67361979166668 114.91623263888889)"/><path d="M880 854.94a6 6 0 0 1 6-6h388a6 6 0 0 1 6 6v148.58a6 6 0 0 1-6 6H886a6 6 0 0 1-6-6z" stroke="#000" stroke-width="4" fill="#fff"/><path d="M907.27 848.94v160.58m345.46-160.58v160.58" stroke="#000" stroke-width="4" fill="none"/><use xlink:href="#i" transform="matrix(1,0,0,1,922.2727272727273,853.9435100000001) translate(2.5431857638888857 58.58485243055556)"/><use xlink:href="#j" transform="matrix(1,0,0,1,922.2727272727273,853.9435100000001) translate(167.21332465277777 58.58485243055556)"/><use xlink:href="#k" transform="matrix(1,0,0,1,922.2727272727273,853.9435100000001) translate(74.41167534722221 115.04969618055556)"/><use xlink:href="#l" transform="matrix(1,0,0,1,922.2727272727273,853.9435100000001) translate(103.19856770833333 115.04969618055556)"/><path d="M1075.2 1080.6a7.95 7.95 0 0 1 9.6 0l177.9 134.28a4.53 4.53 0 0 1 0 7.22l-177.9 134.3a7.95 7.95 0 0 1-9.6 0l-177.9-134.3a4.53 4.53 0 0 1 0-7.22z" stroke="#000" stroke-width="4" fill="#fff"/><use xlink:href="#m" transform="matrix(1,0,0,1,897.5,1081.9787164583333) translate(42.26953993055555 150.01388888888889)"/><use xlink:href="#n" transform="matrix(1,0,0,1,897.5,1081.9787164583333) translate(167.124140625 150.01388888888889)"/><path d="M880 1439.52a6 6 0 0 1 6-6h388a6 6 0 0 1 6 6v163.52a6 6 0 0 1-6 6H886a6 6 0 0 1-6-6z" stroke="#000" stroke-width="4" fill="#fff"/><use xlink:href="#o" transform="matrix(1,0,0,1,892,1445.516686580777) translate(22.631076388888857 58.638888888888886)"/><use xlink:href="#p" transform="matrix(1,0,0,1,892,1445.516686580777) translate(184.90104166666666 58.638888888888886)"/><use xlink:href="#q" transform="matrix(1,0,0,1,892,1445.516686580777) translate(126.56770833333333 115.10373263888889)"/><path d="M1480 1152.88a6 6 0 0 1 6-6h328a6 6 0 0 1 6 6v131.22a6 6 0 0 1-6 6h-328a6 6 0 0 1-6-6z" stroke="#000" stroke-width="4" fill="#fff"/><use xlink:href="#r" transform="matrix(1,0,0,1,1492.0000000000002,1158.881515686222) translate(3.4318576388888573 41.388888888888886)"/><use xlink:href="#s" transform="matrix(1,0,0,1,1492.0000000000002,1158.881515686222) translate(150.70833333333331 41.388888888888886)"/><use xlink:href="#t" transform="matrix(1,0,0,1,1492.0000000000002,1158.881515686222) translate(99.94769965277777 97.85373263888889)"/><path d="M1080 1613.04v42.22" stroke="#3a414a" stroke-width="4" fill="none"/><path d="M1081.97 1613.1h-3.94v-2.06h3.94z" stroke="#3a414a" stroke-width=".05" fill="#3a414a"/><path d="M1080 1671.53l-4.63-14.27h9.27z" stroke="#3a414a" stroke-width="4" fill="#3a414a"/><path d="M1820 574.86c0 8.85-76.1 16.02-170 16.02s-170-7.17-170-16.02V446.63c0-8.86 76.1-16.03 170-16.03s170 7.17 170 16.03z" stroke="#000" stroke-width="4" fill="#fff"/><path d="M1820 446.63c0 8.85-76.1 16.02-170 16.02s-170-7.17-170-16.02" stroke="#000" stroke-width="4" fill="none"/><use xlink:href="#u" transform="matrix(1,0,0,1,1485,467.6546726041668) translate(21.149088541666657 41.295138888888886)"/><use xlink:href="#v" transform="matrix(1,0,0,1,1485,467.6546726041668) translate(198.36697048611111 41.295138888888886)"/><use xlink:href="#w" transform="matrix(1,0,0,1,1485,467.6546726041668) translate(131.13932291666666 97.75998263888889)"/><path d="M680 561.45c0 7-74.83 12.68-167.14 12.68-92.3 0-167.14-5.68-167.14-12.68V460.03c0-7 74.83-12.68 167.14-12.68 92.3 0 167.14 5.68 167.14 12.68z" stroke="#000" stroke-width="4" fill="#fff"/><path d="M680 460.03c0 7-74.83 12.68-167.14 12.68-92.3 0-167.14-5.67-167.14-12.67" stroke="#000" stroke-width="4" fill="none"/><use xlink:href="#x" transform="matrix(1,0,0,1,350.7224835615018,477.7066257291668) translate(14.486762152777771 56.013888888888886)"/><path d="M680 979.94c0 7-74.83 12.68-167.14 12.68-92.3 0-167.14-5.68-167.14-12.68V878.52c0-7 74.83-12.68 167.14-12.68 92.3 0 167.14 5.68 167.14 12.68z" stroke="#000" stroke-width="4" fill="#fff"/><path d="M680 878.52c0 7-74.83 12.68-167.14 12.68-92.3 0-167.14-5.68-167.14-12.68" stroke="#000" stroke-width="4" fill="none"/><use xlink:href="#y" transform="matrix(1,0,0,1,350.7224835615018,896.1959839583335) translate(62.77886284722223 56.013888888888886)"/><path d="M684 510.74h171.26" stroke="#3a414a" stroke-width="4" fill="none"/><path d="M684.05 512.72H682v-3.95h2.05z" stroke="#3a414a" stroke-width=".05" fill="#3a414a"/><path d="M871.53 510.74l-14.27 4.64v-9.27z" stroke="#3a414a" stroke-width="4" fill="#3a414a"/><path d="M880 246a6 6 0 0 1 6-6h388a6 6 0 0 1 6 6v103.52a6 6 0 0 1-6 6H886a6 6 0 0 1-6-6z" stroke="#000" stroke-width="4" fill="#fff"/><use xlink:href="#z" transform="matrix(1,0,0,1,892,252) translate(43.66297743055554 56.013888888888886)"/><use xlink:href="#A" transform="matrix(1,0,0,1,892,252) translate(163.869140625 56.013888888888886)"/><path d="M1080 170.1v45.16" stroke="#3a414a" stroke-width="4" fill="none"/><path d="M1081.97 170.16h-3.94v-2.06h3.94z" stroke="#3a414a" stroke-width=".05" fill="#3a414a"/><path d="M1080 231.53l-4.63-14.27h9.27z" stroke="#3a414a" stroke-width="4" fill="#3a414a"/><path d="M1080 359.52v38.72" stroke="#3a414a" stroke-width="4" fill="none"/><path d="M1081.97 359.57h-3.94v-2.05h3.94z" stroke="#3a414a" stroke-width=".05" fill="#3a414a"/><path d="M1080 414.5l-4.63-14.26h9.27z" stroke="#3a414a" stroke-width="4" fill="#3a414a"/><path d="M1081.97 1408.78h-3.94v-2.27h3.94zm0-23.78h-3.94v-23h3.94z" stroke="#3a414a" stroke-width=".05" fill="#3a414a"/><path d="M1078.72 1359.9l1.28.1 1.28-.1.7-.13v2.28h-3.95v-2.27z" fill="#3a414a"/><path stroke="#3a414a" stroke-width=".05" fill="#3a414a"/><path d="M1080 1425.05l-4.63-14.27h9.27z" fill="#3a414a"/><path d="M1080 1431.44l-7.35-22.64h14.7zm-1.92-18.7l1.92 5.9 1.92-5.9z" stroke="#3a414a" stroke-width=".05" fill="#3a414a"/><use xlink:href="#B" transform="matrix(1,0,0,1,1064.201388888889,1385.0002137485972) translate(0.005000000000000782 17.22222222222222)"/><path d="M1360.03 1220.46h-91.5v-3.95h91.5zm95.23 0h-70.77v-3.95h70.76z" stroke="#3a414a" stroke-width=".05" fill="#3a414a"/><path d="M1268.57 1220.46h-2.38l.2-.77.12-1.2-.1-1.2-.23-.8h2.37z" fill="#3a414a"/><path stroke="#3a414a" stroke-width=".05" fill="#3a414a"/><path d="M1471.53 1218.5l-14.27 4.63v-9.28z" fill="#3a414a"/><path d="M1477.92 1218.5l-22.63 7.34v-14.7zm-18.68 1.9l5.9-1.9-5.9-1.93z" stroke="#3a414a" stroke-width=".05" fill="#3a414a"/><use xlink:href="#C" transform="matrix(1,0,0,1,1360.0333797965643,1207.7341498958333) translate(0.005000000000000782 17.22222222222222)"/><path d="M1650 1294.1v221.18a6 6 0 0 1-6 6h-339.26" stroke="#3a414a" stroke-width="4" fill="none"/><path d="M1651.97 1294.15h-3.94v-2.05h3.94z" stroke="#3a414a" stroke-width=".05" fill="#3a414a"/><path d="M1288.47 1521.28l14.27-4.64v9.27z" stroke="#3a414a" stroke-width="4" fill="#3a414a"/><path d="M1476 510.74h-171.26" stroke="#3a414a" stroke-width="4" fill="none"/><path d="M1478 512.72h-2.05v-3.95h2.05z" stroke="#3a414a" stroke-width=".05" fill="#3a414a"/><path d="M1288.47 510.74l14.27-4.63v9.28z" stroke="#3a414a" stroke-width="4" fill="#3a414a"/><path d="M880 671.96a6 6 0 0 1 6-6h388a6 6 0 0 1 6 6v103.52a6 6 0 0 1-6 6H886a6 6 0 0 1-6-6z" stroke="#000" stroke-width="4" fill="#fff"/><use xlink:href="#D" transform="matrix(1,0,0,1,892,677.96234) translate(0.9079861111111427 56.013888888888886)"/><use xlink:href="#E" transform="matrix(1,0,0,1,892,677.96234) translate(116.38975694444447 56.013888888888886)"/><use xlink:href="#F" transform="matrix(1,0,0,1,892,677.96234) translate(248.55121527777777 56.013888888888886)"/><path d="M1080 602.5v38.72" stroke="#3a414a" stroke-width="4" fill="none"/><path d="M1081.97 602.55h-3.94v-2.05h3.94z" stroke="#3a414a" stroke-width=".05" fill="#3a414a"/><path d="M1080 657.5l-4.63-14.28h9.27z" stroke="#3a414a" stroke-width="4" fill="#3a414a"/><path d="M1497.3 723.72h-192.56" stroke="#3a414a" stroke-width="4" fill="none"/><path d="M1498.78 725.7h-1.53v-3.95h2.58z" stroke="#3a414a" stroke-width=".05" fill="#3a414a"/><path d="M1288.47 723.72l14.27-4.63v9.26z" stroke="#3a414a" stroke-width="4" fill="#3a414a"/><path d="M1080 785.48v38.73" stroke="#3a414a" stroke-width="4" fill="none"/><path d="M1081.97 785.53h-3.94v-2.05h3.94z" stroke="#3a414a" stroke-width=".05" fill="#3a414a"/><path d="M1080 840.47l-4.63-14.26h9.27z" stroke="#3a414a" stroke-width="4" fill="#3a414a"/><path d="M684 929.23h171.26" stroke="#3a414a" stroke-width="4" fill="none"/><path d="M684.05 931.2H682v-3.95h2.05z" stroke="#3a414a" stroke-width=".05" fill="#3a414a"/><path d="M871.53 929.23l-14.27 4.63v-9.26z" stroke="#3a414a" stroke-width="4" fill="#3a414a"/><path d="M1080 1013.52v40.73" stroke="#3a414a" stroke-width="4" fill="none"/><path d="M1081.97 1013.57h-3.94v-2.05h3.94z" stroke="#3a414a" stroke-width=".05" fill="#3a414a"/><path d="M1080 1070.5l-4.63-14.25h9.27z" stroke="#3a414a" stroke-width="4" fill="#3a414a"/><path d="M1230.9 1680c22.08 0 40 17.9 40 40s-17.92 40-40 40H929.1c-22.08 0-40-17.9-40-40s17.92-40 40-40z" stroke="#000" stroke-width="4" fill="#fff"/><g><use xlink:href="#G" transform="matrix(1,0,0,1,894.1111460350163,1685) translate(77.72764756944443 45.451388888888886)"/><use xlink:href="#H" transform="matrix(1,0,0,1,894.1111460350163,1685) translate(186.4646267361111 45.451388888888886)"/></g><defs><path d="M657 26c-323 0-524-166-541-416h195c15 169 171 246 346 246 202 0 356-106 356-265 5-203-294-238-475-293-239-73-380-191-380-389 0-252 224-419 512-419 294 0 499 171 508 396H992c-17-145-151-228-328-228-193 0-321 102-321 242 0 156 175 211 284 241l149 41c160 44 422 134 422 412 0 244-197 432-541 432" id="I"/><path d="M598-1118v154H368v674c0 100 37 144 132 144 23 0 62-6 92-12L629-6c-37 13-88 20-134 20-193 0-307-107-307-290v-688H20v-154h168v-266h180v266h230" id="J"/><path d="M471 26C259 26 90-98 90-318c0-256 228-303 435-329 202-27 287-16 287-108 0-139-79-219-234-219-161 0-248 86-283 164l-173-57c86-203 278-265 451-265 150 0 419 46 419 395V0H815v-152h-12C765-73 660 26 471 26zm31-159c199 0 310-134 310-271v-155c-30 35-226 55-295 64-131 17-246 59-246 186 0 116 97 176 231 176" id="K"/><path d="M158 0v-1118h174v172h12c41-113 157-188 290-188 26 0 70 2 91 3v181c-11-2-60-10-108-10-161 0-279 109-279 260V0H158" id="L"/><g id="a"><use transform="matrix(0.015190972222222222,0,0,0.015190972222222222,0,0)" xlink:href="#I"/><use transform="matrix(0.015190972222222222,0,0,0.015190972222222222,19.9609375,0)" xlink:href="#J"/><use transform="matrix(0.015190972222222222,0,0,0.015190972222222222,30.29079861111111,0)" xlink:href="#K"/><use transform="matrix(0.015190972222222222,0,0,0.015190972222222222,47.760416666666664,0)" xlink:href="#L"/><use transform="matrix(0.015190972222222222,0,0,0.015190972222222222,59.958767361111114,0)" xlink:href="#J"/></g><path d="M783 20c-382 0-661-292-661-764 0-473 279-766 661-766 302 0 548 182 601 489h-190c-42-204-217-313-411-313-268 0-476 208-476 590 0 381 209 588 476 588 195 0 369-110 411-313h190c-52 303-296 489-601 489" id="M"/><path d="M613 24c-304 0-509-231-509-576 0-350 205-580 509-580 305 0 511 230 511 580 0 345-206 576-511 576zm0-161c226 0 329-195 329-415 0-222-103-419-329-419-223 0-326 196-326 419 0 220 103 415 326 415" id="N"/><path d="M158 418v-1536h174v179h20c37-59 106-193 324-193 279 0 474 222 474 576 0 356-194 580-473 580-213 0-288-135-325-197h-14v591H158zm492-555c209 0 317-186 317-421 0-232-105-413-317-413-206 0-314 166-314 413 0 249 111 421 314 421" id="O"/><path d="M140 405l46-156c120 36 205 19 263-150l32-93L54-1118h197c107 313 237 620 324 950 87-331 219-637 326-950h196L606 167c-68 178-176 259-334 259-64 0-113-12-132-21" id="P"/><g id="b"><use transform="matrix(0.015190972222222222,0,0,0.015190972222222222,0,0)" xlink:href="#M"/><use transform="matrix(0.015190972222222222,0,0,0.015190972222222222,22.725694444444443,0)" xlink:href="#N"/><use transform="matrix(0.015190972222222222,0,0,0.015190972222222222,41.38020833333333,0)" xlink:href="#O"/><use transform="matrix(0.015190972222222222,0,0,0.015190972222222222,59.822048611111114,0)" xlink:href="#P"/></g><path d="M158 0v-1118h175l1 205c55-151 181-225 313-225 147 0 245 90 285 228 53-141 190-228 352-228 194 0 352 125 352 384V0h-181v-749c0-161-105-225-225-225-151 0-243 103-243 244V0H807v-767c0-124-93-207-219-207-131 0-250 92-250 270V0H158" id="Q"/><path d="M537 14c-226 0-379-139-379-422v-710h180v695c0 172 97 275 253 275 160 0 281-109 281-300v-670h181V0H879v-209C806-46 684 14 537 14" id="R"/><path d="M338-670V0H158v-1118h173l1 207c72-158 192-221 342-221 226 0 378 139 378 422V0H872v-695c0-172-96-275-252-275-161 0-282 109-282 300" id="S"/><path d="M158 0v-1118h180V0H158zm91-1301c-68 0-125-53-125-119s57-119 125-119c69 0 126 53 126 119s-57 119-126 119" id="T"/><path d="M232-923l-22-567h194l-22 567H232" id="U"/><path d="M538 24C308 24 148-78 108-271l171-41c32 123 123 178 257 178 156 0 256-77 256-169 0-77-54-128-164-154l-186-44c-203-48-300-148-300-305 0-192 176-326 414-326 230 0 351 112 402 269l-163 42c-31-80-94-158-238-158-133 0-233 69-233 162 0 83 57 129 188 160l169 40c203 48 298 149 298 302 0 196-179 339-441 339" id="V"/><g id="c"><use transform="matrix(0.015190972222222222,0,0,0.015190972222222222,0,0)" xlink:href="#M"/><use transform="matrix(0.015190972222222222,0,0,0.015190972222222222,22.725694444444443,0)" xlink:href="#N"/><use transform="matrix(0.015190972222222222,0,0,0.015190972222222222,41.38020833333333,0)" xlink:href="#Q"/><use transform="matrix(0.015190972222222222,0,0,0.015190972222222222,68.6328125,0)" xlink:href="#Q"/><use transform="matrix(0.015190972222222222,0,0,0.015190972222222222,95.88541666666667,0)" xlink:href="#R"/><use transform="matrix(0.015190972222222222,0,0,0.015190972222222222,114.28168402777779,0)" xlink:href="#S"/><use transform="matrix(0.015190972222222222,0,0,0.015190972222222222,132.66276041666669,0)" xlink:href="#T"/><use transform="matrix(0.015190972222222222,0,0,0.015190972222222222,140.1974826388889,0)" xlink:href="#J"/><use transform="matrix(0.015190972222222222,0,0,0.015190972222222222,150.98307291666669,0)" xlink:href="#P"/><use transform="matrix(0.015190972222222222,0,0,0.015190972222222222,168.46788194444446,0)" xlink:href="#U"/><use transform="matrix(0.015190972222222222,0,0,0.015190972222222222,177.7951388888889,0)" xlink:href="#V"/></g><path d="M180 0v-1490h510c348 0 508 194 508 460 0 198-88 351-276 417L1256 0h-220L726-579c-117 2-238 0-356 1V0H180zm190-747h312c235 0 327-108 327-283 0-177-92-293-329-293H370v576" id="W"/><path d="M628 24c-324 0-524-230-524-574 0-343 198-582 503-582 237 0 487 146 487 559v75H286c9 234 145 362 343 362 132 0 231-58 273-172l174 48C1024-91 857 24 628 24zM287-650h624c-17-190-120-322-304-322-192 0-309 151-320 322" id="X"/><path d="M1096 418H916v-591h-14C865-111 790 24 577 24c-279 0-473-224-473-580 0-354 195-576 474-576 218 0 287 134 324 193h20v-179h174V418zM604-137c203 0 314-172 314-421 0-247-108-413-314-413-212 0-317 181-317 413 0 235 108 421 317 421" id="Y"/><path d="M577 24c-279 0-473-224-473-580 0-354 195-576 474-576 218 0 287 134 324 193h14v-551h180V0H922v-173h-20C865-111 790 24 577 24zm27-161c203 0 314-172 314-421 0-247-108-413-314-413-212 0-317 181-317 413 0 235 108 421 317 421" id="Z"/><g id="d"><use transform="matrix(0.015190972222222222,0,0,0.015190972222222222,0,0)" xlink:href="#W"/><use transform="matrix(0.015190972222222222,0,0,0.015190972222222222,19.56597222222222,0)" xlink:href="#X"/><use transform="matrix(0.015190972222222222,0,0,0.015190972222222222,37.70399305555556,0)" xlink:href="#Y"/><use transform="matrix(0.015190972222222222,0,0,0.015190972222222222,56.75347222222223,0)" xlink:href="#R"/><use transform="matrix(0.015190972222222222,0,0,0.015190972222222222,75.14973958333334,0)" xlink:href="#T"/><use transform="matrix(0.015190972222222222,0,0,0.015190972222222222,82.68446180555557,0)" xlink:href="#L"/><use transform="matrix(0.015190972222222222,0,0,0.015190972222222222,93.88020833333334,0)" xlink:href="#X"/><use transform="matrix(0.015190972222222222,0,0,0.015190972222222222,112.01822916666667,0)" xlink:href="#Z"/></g><path d="M52 0l541-1490h220L1361 0h-200l-149-416H398L254 0H52zm404-582h497c-103-290-145-390-251-756-108 377-145 460-246 756" id="aa"/><path d="M613 24c-304 0-509-231-509-576 0-350 205-580 509-580 216 0 392 114 453 309l-173 49c-33-115-133-197-280-197-223 0-326 196-326 419 0 220 103 415 326 415 150 0 252-85 285-206l172 49C1010-95 832 24 613 24" id="ab"/><path d="M338-670V0H158v-1490h180v566c73-149 190-208 336-208 226 0 379 139 379 422V0H872v-695c0-172-96-275-252-275-161 0-282 109-282 300" id="ac"/><g id="e"><use transform="matrix(0.015190972222222222,0,0,0.015190972222222222,0,0)" xlink:href="#aa"/><use transform="matrix(0.015190972222222222,0,0,0.015190972222222222,21.46484375,0)" xlink:href="#L"/><use transform="matrix(0.015190972222222222,0,0,0.015190972222222222,32.66059027777778,0)" xlink:href="#ab"/><use transform="matrix(0.015190972222222222,0,0,0.015190972222222222,50.43402777777778,0)" xlink:href="#ac"/><use transform="matrix(0.015190972222222222,0,0,0.015190972222222222,68.83029513888889,0)" xlink:href="#X"/><use transform="matrix(0.015190972222222222,0,0,0.015190972222222222,86.96831597222221,0)" xlink:href="#J"/><use transform="matrix(0.015190972222222222,0,0,0.015190972222222222,97.75390624999999,0)" xlink:href="#P"/><use transform="matrix(0.015190972222222222,0,0,0.015190972222222222,115.23871527777777,0)" xlink:href="#O"/><use transform="matrix(0.015190972222222222,0,0,0.015190972222222222,134.28819444444443,0)" xlink:href="#X"/><use transform="matrix(0.015190972222222222,0,0,0.015190972222222222,152.42621527777777,0)" xlink:href="#V"/></g><path d="M458 0L52-1490h194c108 439 233 855 324 1313 92-459 221-873 331-1313h216c110 438 234 854 330 1307 92-455 216-869 323-1307h196L1558 0h-221l-256-944c-26-95-50-200-73-331-22 122-44 223-73 331L680 0H458" id="ad"/><g id="f"><use transform="matrix(0.015190972222222222,0,0,0.015190972222222222,0,0)" xlink:href="#ad"/><use transform="matrix(0.015190972222222222,0,0,0.015190972222222222,29.075520833333332,0)" xlink:href="#X"/><use transform="matrix(0.015190972222222222,0,0,0.015190972222222222,47.51736111111111,0)" xlink:href="#K"/><use transform="matrix(0.015190972222222222,0,0,0.015190972222222222,64.98697916666666,0)" xlink:href="#J"/><use transform="matrix(0.015190972222222222,0,0,0.015190972222222222,75.16493055555554,0)" xlink:href="#ac"/><use transform="matrix(0.015190972222222222,0,0,0.015190972222222222,93.56119791666666,0)" xlink:href="#X"/><use transform="matrix(0.015190972222222222,0,0,0.015190972222222222,111.69921874999999,0)" xlink:href="#L"/></g><g id="g"><use transform="matrix(0.015190972222222222,0,0,0.015190972222222222,0,0)" xlink:href="#I"/><use transform="matrix(0.015190972222222222,0,0,0.015190972222222222,19.9609375,0)" xlink:href="#J"/><use transform="matrix(0.015190972222222222,0,0,0.015190972222222222,30.29079861111111,0)" xlink:href="#K"/><use transform="matrix(0.015190972222222222,0,0,0.015190972222222222,47.760416666666664,0)" xlink:href="#J"/><use transform="matrix(0.015190972222222222,0,0,0.015190972222222222,57.93836805555556,0)" xlink:href="#T"/><use transform="matrix(0.015190972222222222,0,0,0.015190972222222222,65.47309027777779,0)" xlink:href="#N"/><use transform="matrix(0.015190972222222222,0,0,0.015190972222222222,84.12760416666667,0)" xlink:href="#S"/></g><path d="M370-1490V0H180v-1490h190" id="ae"/><path d="M678-1118v154H420V0H240v-964H20v-154h220v-149c0-194 155-293 318-293 85 0 141 18 168 30l-50 154c-19-6-47-17-97-17-111 0-159 58-159 166v109h258" id="af"/><g id="h"><use transform="matrix(0.015190972222222222,0,0,0.015190972222222222,0,0)" xlink:href="#ae"/><use transform="matrix(0.015190972222222222,0,0,0.015190972222222222,8.355034722222221,0)" xlink:href="#S"/><use transform="matrix(0.015190972222222222,0,0,0.015190972222222222,26.73611111111111,0)" xlink:href="#af"/><use transform="matrix(0.015190972222222222,0,0,0.015190972222222222,37.33940972222222,0)" xlink:href="#N"/><use transform="matrix(0.015190972222222222,0,0,0.015190972222222222,55.993923611111114,0)" xlink:href="#L"/><use transform="matrix(0.015190972222222222,0,0,0.015190972222222222,68.19227430555556,0)" xlink:href="#Q"/><use transform="matrix(0.015190972222222222,0,0,0.015190972222222222,95.44487847222223,0)" xlink:href="#K"/><use transform="matrix(0.015190972222222222,0,0,0.015190972222222222,112.91449652777779,0)" xlink:href="#J"/><use transform="matrix(0.015190972222222222,0,0,0.015190972222222222,123.09244791666667,0)" xlink:href="#T"/><use transform="matrix(0.015190972222222222,0,0,0.015190972222222222,130.62717013888889,0)" xlink:href="#N"/><use transform="matrix(0.015190972222222222,0,0,0.015190972222222222,149.28168402777777,0)" xlink:href="#S"/></g><path d="M356-670L245 0H65l247-1490h180l-94 565c97-150 219-207 362-207 226 0 365 139 318 422L960 0H779l116-695c29-174-53-275-208-275-158 0-299 107-331 300" id="ag"/><path d="M61 0l23-137 583-537c198-182 297-283 319-421 25-157-68-250-224-250-169 0-311 109-339 278H242c44-263 264-443 530-443 267 0 433 185 393 418-28 164-126 293-428 566L353-179l-2 12h686L1010 0H61" id="ah"/><path d="M65 0l247-1490h180L349-625h22l559-493h223L606-638 1003 0H772L449-523 313-412 245 0H65" id="ai"/><path d="M826-719l-28 166H144l28-166h654" id="aj"/><path d="M-4 418l255-1536h174l-30 179h9c47-68 143-193 355-193 246 0 401 170 401 447 0 348-211 709-568 709-219 0-274-140-300-202h-17l-99 596H-4zm572-555c267 0 411-296 411-543 0-170-78-291-250-291-269 0-405 284-405 542 0 177 81 292 244 292" id="ak"/><path d="M-28 0l489-573-281-545h202c65 135 144 295 195 434 91-140 226-300 336-434h214L662-564 960 0H756c-70-143-156-309-211-458C447-309 301-142 185 0H-28" id="al"/><path d="M65 0l186-1118h175l-31 195c80-148 212-215 337-215 153 0 236 96 255 228 75-143 223-228 382-228 199 0 341 131 298 390L1543 0h-181l126-756c27-162-65-218-177-218-160 0-274 111-297 250L894 0H714l128-773c21-127-57-201-174-201-136 0-277 97-307 277L245 0H65" id="am"/><path d="M492-1490L245 0H65l247-1490h180" id="an"/><g id="i"><use transform="matrix(0.015190972222222222,0,0,0.015190972222222222,0,0)" xlink:href="#ag"/><use transform="matrix(0.015190972222222222,0,0,0.015190972222222222,18.39626736111111,0)" xlink:href="#ah"/><use transform="matrix(0.015190972222222222,0,0,0.015190972222222222,37.369791666666664,0)" xlink:href="#ai"/><use transform="matrix(0.015190972222222222,0,0,0.015190972222222222,53.046875,0)" xlink:href="#aj"/><use transform="matrix(0.015190972222222222,0,0,0.015190972222222222,67.38715277777777,0)" xlink:href="#ag"/><use transform="matrix(0.015190972222222222,0,0,0.015190972222222222,85.78342013888889,0)" xlink:href="#ak"/><use transform="matrix(0.015190972222222222,0,0,0.015190972222222222,104.14930555555554,0)" xlink:href="#al"/><use transform="matrix(0.015190972222222222,0,0,0.015190972222222222,121.13281249999999,0)" xlink:href="#am"/><use transform="matrix(0.015190972222222222,0,0,0.015190972222222222,148.38541666666666,0)" xlink:href="#an"/></g><path d="M481 0L54-1118h197c107 314 236 620 325 951 87-331 217-637 324-951h197L670 0H481" id="ao"/><g id="j"><use transform="matrix(0.015190972222222222,0,0,0.015190972222222222,0,0)" xlink:href="#M"/><use transform="matrix(0.015190972222222222,0,0,0.015190972222222222,22.725694444444443,0)" xlink:href="#N"/><use transform="matrix(0.015190972222222222,0,0,0.015190972222222222,41.38020833333333,0)" xlink:href="#S"/><use transform="matrix(0.015190972222222222,0,0,0.015190972222222222,59.30555555555556,0)" xlink:href="#ao"/><use transform="matrix(0.015190972222222222,0,0,0.015190972222222222,76.18272569444446,0)" xlink:href="#X"/><use transform="matrix(0.015190972222222222,0,0,0.015190972222222222,94.32074652777779,0)" xlink:href="#L"/><use transform="matrix(0.015190972222222222,0,0,0.015190972222222222,106.51909722222223,0)" xlink:href="#J"/><use transform="matrix(0.015190972222222222,0,0,0.015190972222222222,116.39322916666667,0)" xlink:href="#X"/><use transform="matrix(0.015190972222222222,0,0,0.015190972222222222,134.53125,0)" xlink:href="#L"/></g><path d="M580 20c-295 0-476-179-476-409 0-189 123-290 294-416-104-125-173-226-173-362 0-197 144-337 365-337 224 0 362 144 362 321 0 185-174 312-306 405l319 387c38-75 61-165 61-267h173c0 208-62 332-120 406L1287 0h-217L967-124C868-27 716 20 580 20zm279-273L507-675l-51 38c-123 91-167 162-167 254 0 147 113 246 278 246 107 0 210-41 292-116zM538-908l97-72c54-40 136-101 136-206 0-95-68-163-176-163-113 0-189 74-189 181 0 90 53 164 132 260" id="ap"/><use transform="matrix(0.015190972222222222,0,0,0.015190972222222222,0,0)" xlink:href="#ap" id="k"/><path d="M338-1490V0H158v-1490h180" id="aq"/><g id="l"><use transform="matrix(0.015190972222222222,0,0,0.015190972222222222,0,0)" xlink:href="#I"/><use transform="matrix(0.015190972222222222,0,0,0.015190972222222222,19.9609375,0)" xlink:href="#T"/><use transform="matrix(0.015190972222222222,0,0,0.015190972222222222,27.49565972222222,0)" xlink:href="#Q"/><use transform="matrix(0.015190972222222222,0,0,0.015190972222222222,54.748263888888886,0)" xlink:href="#R"/><use transform="matrix(0.015190972222222222,0,0,0.015190972222222222,73.14453125,0)" xlink:href="#aq"/><use transform="matrix(0.015190972222222222,0,0,0.015190972222222222,80.67925347222223,0)" xlink:href="#K"/><use transform="matrix(0.015190972222222222,0,0,0.015190972222222222,98.14887152777779,0)" xlink:href="#J"/><use transform="matrix(0.015190972222222222,0,0,0.015190972222222222,108.02300347222223,0)" xlink:href="#N"/><use transform="matrix(0.015190972222222222,0,0,0.015190972222222222,126.67751736111111,0)" xlink:href="#L"/></g><path d="M784 20c-382 0-662-292-662-764 0-473 280-766 662-766s660 293 660 766c0 472-278 764-660 764zm0-176c266 0 475-207 475-588 0-383-209-590-475-590-268 0-477 208-477 590 0 380 209 588 477 588" id="ar"/><g id="m"><use transform="matrix(0.015190972222222222,0,0,0.015190972222222222,0,0)" xlink:href="#ar"/><use transform="matrix(0.015190972222222222,0,0,0.015190972222222222,23.7890625,0)" xlink:href="#R"/><use transform="matrix(0.015190972222222222,0,0,0.015190972222222222,42.185329861111114,0)" xlink:href="#J"/><use transform="matrix(0.015190972222222222,0,0,0.015190972222222222,52.36328125,0)" xlink:href="#O"/><use transform="matrix(0.015190972222222222,0,0,0.015190972222222222,71.41276041666667,0)" xlink:href="#R"/><use transform="matrix(0.015190972222222222,0,0,0.015190972222222222,89.80902777777779,0)" xlink:href="#J"/><use transform="matrix(0.015190972222222222,0,0,0.015190972222222222,99.68315972222223,0)" xlink:href="#V"/></g><path d="M383-449c-3-277 82-343 222-425 88-53 156-134 156-250 0-139-108-227-243-227-118 0-235 70-246 236H82c10-251 200-395 436-395 259 0 427 165 427 393 0 161-74 273-203 352-132 80-180 132-178 316H383zm93 462c-75 0-135-60-135-134 0-75 60-135 135-135 74 0 134 60 134 135 0 74-60 134-134 134" id="as"/><g id="n"><use transform="matrix(0.015190972222222222,0,0,0.015190972222222222,0,0)" xlink:href="#I"/><use transform="matrix(0.015190972222222222,0,0,0.015190972222222222,19.9609375,0)" xlink:href="#R"/><use transform="matrix(0.015190972222222222,0,0,0.015190972222222222,38.357204861111114,0)" xlink:href="#af"/><use transform="matrix(0.015190972222222222,0,0,0.015190972222222222,48.65668402777778,0)" xlink:href="#af"/><use transform="matrix(0.015190972222222222,0,0,0.015190972222222222,60.17144097222222,0)" xlink:href="#T"/><use transform="matrix(0.015190972222222222,0,0,0.015190972222222222,67.70616319444444,0)" xlink:href="#ab"/><use transform="matrix(0.015190972222222222,0,0,0.015190972222222222,85.47960069444444,0)" xlink:href="#T"/><use transform="matrix(0.015190972222222222,0,0,0.015190972222222222,93.01432291666667,0)" xlink:href="#X"/><use transform="matrix(0.015190972222222222,0,0,0.015190972222222222,111.15234375,0)" xlink:href="#S"/><use transform="matrix(0.015190972222222222,0,0,0.015190972222222222,129.53342013888889,0)" xlink:href="#J"/><use transform="matrix(0.015190972222222222,0,0,0.015190972222222222,139.71137152777777,0)" xlink:href="#as"/></g><path d="M611 442c-248 0-391-105-460-228l146-94c47 65 117 165 314 165 178 0 307-82 307-266v-224h-17C863-141 792-18 576-18c-268 0-472-195-472-546 0-346 197-568 476-568 216 0 288 133 326 193h17v-179h175V29c0 289-215 413-487 413zm-5-620c203 0 314-146 314-390 0-237-108-403-314-403-213 0-319 180-319 403 0 230 109 390 319 390" id="at"/><g id="o"><use transform="matrix(0.015190972222222222,0,0,0.015190972222222222,0,0)" xlink:href="#aa"/><use transform="matrix(0.015190972222222222,0,0,0.015190972222222222,21.46484375,0)" xlink:href="#at"/><use transform="matrix(0.015190972222222222,0,0,0.015190972222222222,40.544704861111114,0)" xlink:href="#at"/><use transform="matrix(0.015190972222222222,0,0,0.015190972222222222,59.62456597222223,0)" xlink:href="#L"/><use transform="matrix(0.015190972222222222,0,0,0.015190972222222222,70.8203125,0)" xlink:href="#X"/><use transform="matrix(0.015190972222222222,0,0,0.015190972222222222,88.95833333333333,0)" xlink:href="#at"/><use transform="matrix(0.015190972222222222,0,0,0.015190972222222222,108.03819444444444,0)" xlink:href="#K"/><use transform="matrix(0.015190972222222222,0,0,0.015190972222222222,125.5078125,0)" xlink:href="#J"/><use transform="matrix(0.015190972222222222,0,0,0.015190972222222222,135.38194444444446,0)" xlink:href="#X"/></g><g id="p"><use transform="matrix(0.015190972222222222,0,0,0.015190972222222222,0,0)" xlink:href="#M"/><use transform="matrix(0.015190972222222222,0,0,0.015190972222222222,22.725694444444443,0)" xlink:href="#N"/><use transform="matrix(0.015190972222222222,0,0,0.015190972222222222,41.38020833333333,0)" xlink:href="#Q"/><use transform="matrix(0.015190972222222222,0,0,0.015190972222222222,68.6328125,0)" xlink:href="#Q"/><use transform="matrix(0.015190972222222222,0,0,0.015190972222222222,95.88541666666667,0)" xlink:href="#R"/><use transform="matrix(0.015190972222222222,0,0,0.015190972222222222,114.28168402777779,0)" xlink:href="#S"/><use transform="matrix(0.015190972222222222,0,0,0.015190972222222222,132.66276041666669,0)" xlink:href="#T"/><use transform="matrix(0.015190972222222222,0,0,0.015190972222222222,140.1974826388889,0)" xlink:href="#J"/><use transform="matrix(0.015190972222222222,0,0,0.015190972222222222,150.98307291666669,0)" xlink:href="#P"/></g><g id="q"><use transform="matrix(0.015190972222222222,0,0,0.015190972222222222,0,0)" xlink:href="#aa"/><use transform="matrix(0.015190972222222222,0,0,0.015190972222222222,21.46484375,0)" xlink:href="#S"/><use transform="matrix(0.015190972222222222,0,0,0.015190972222222222,39.845920138888886,0)" xlink:href="#K"/><use transform="matrix(0.015190972222222222,0,0,0.015190972222222222,57.31553819444444,0)" xlink:href="#aq"/><use transform="matrix(0.015190972222222222,0,0,0.015190972222222222,65.00217013888889,0)" xlink:href="#P"/><use transform="matrix(0.015190972222222222,0,0,0.015190972222222222,82.48697916666666,0)" xlink:href="#V"/><use transform="matrix(0.015190972222222222,0,0,0.015190972222222222,98.90842013888889,0)" xlink:href="#T"/><use transform="matrix(0.015190972222222222,0,0,0.015190972222222222,106.44314236111111,0)" xlink:href="#V"/></g><path d="M645 0H180v-1490h484c435 0 692 280 692 742 0 466-257 748-711 748zM370-168h263c363 0 539-218 539-580 0-358-176-574-521-574H370v1154" id="au"/><g id="r"><use transform="matrix(0.015190972222222222,0,0,0.015190972222222222,0,0)" xlink:href="#au"/><use transform="matrix(0.015190972222222222,0,0,0.015190972222222222,22.452256944444443,0)" xlink:href="#R"/><use transform="matrix(0.015190972222222222,0,0,0.015190972222222222,40.84852430555556,0)" xlink:href="#O"/><use transform="matrix(0.015190972222222222,0,0,0.015190972222222222,59.89800347222223,0)" xlink:href="#aq"/><use transform="matrix(0.015190972222222222,0,0,0.015190972222222222,67.43272569444446,0)" xlink:href="#T"/><use transform="matrix(0.015190972222222222,0,0,0.015190972222222222,74.96744791666669,0)" xlink:href="#ab"/><use transform="matrix(0.015190972222222222,0,0,0.015190972222222222,93.04470486111113,0)" xlink:href="#K"/><use transform="matrix(0.015190972222222222,0,0,0.015190972222222222,110.51432291666669,0)" xlink:href="#J"/><use transform="matrix(0.015190972222222222,0,0,0.015190972222222222,120.38845486111113,0)" xlink:href="#X"/></g><path d="M98-1322v-168h1126v168H757V0H567v-1322H98" id="av"/><g id="s"><use transform="matrix(0.015190972222222222,0,0,0.015190972222222222,0,0)" xlink:href="#av"/><use transform="matrix(0.015190972222222222,0,0,0.015190972222222222,20.08246527777778,0)" xlink:href="#T"/><use transform="matrix(0.015190972222222222,0,0,0.015190972222222222,27.6171875,0)" xlink:href="#Q"/><use transform="matrix(0.015190972222222222,0,0,0.015190972222222222,54.86979166666667,0)" xlink:href="#X"/><use transform="matrix(0.015190972222222222,0,0,0.015190972222222222,73.0078125,0)" xlink:href="#V"/><use transform="matrix(0.015190972222222222,0,0,0.015190972222222222,89.42925347222223,0)" xlink:href="#X"/><use transform="matrix(0.015190972222222222,0,0,0.015190972222222222,107.56727430555556,0)" xlink:href="#L"/><use transform="matrix(0.015190972222222222,0,0,0.015190972222222222,119.765625,0)" xlink:href="#T"/><use transform="matrix(0.015190972222222222,0,0,0.015190972222222222,127.30034722222221,0)" xlink:href="#X"/><use transform="matrix(0.015190972222222222,0,0,0.015190972222222222,145.43836805555557,0)" xlink:href="#V"/></g><g id="t"><use transform="matrix(0.015190972222222222,0,0,0.015190972222222222,0,0)" xlink:href="#ar"/><use transform="matrix(0.015190972222222222,0,0,0.015190972222222222,23.7890625,0)" xlink:href="#R"/><use transform="matrix(0.015190972222222222,0,0,0.015190972222222222,42.185329861111114,0)" xlink:href="#J"/><use transform="matrix(0.015190972222222222,0,0,0.015190972222222222,52.36328125,0)" xlink:href="#O"/><use transform="matrix(0.015190972222222222,0,0,0.015190972222222222,71.41276041666667,0)" xlink:href="#R"/><use transform="matrix(0.015190972222222222,0,0,0.015190972222222222,89.80902777777779,0)" xlink:href="#J"/><use transform="matrix(0.015190972222222222,0,0,0.015190972222222222,99.68315972222223,0)" xlink:href="#V"/></g><g id="u"><use transform="matrix(0.015190972222222222,0,0,0.015190972222222222,0,0)" xlink:href="#M"/><use transform="matrix(0.015190972222222222,0,0,0.015190972222222222,22.725694444444443,0)" xlink:href="#N"/><use transform="matrix(0.015190972222222222,0,0,0.015190972222222222,41.38020833333333,0)" xlink:href="#Q"/><use transform="matrix(0.015190972222222222,0,0,0.015190972222222222,68.6328125,0)" xlink:href="#Q"/><use transform="matrix(0.015190972222222222,0,0,0.015190972222222222,95.88541666666667,0)" xlink:href="#R"/><use transform="matrix(0.015190972222222222,0,0,0.015190972222222222,114.28168402777779,0)" xlink:href="#S"/><use transform="matrix(0.015190972222222222,0,0,0.015190972222222222,132.66276041666669,0)" xlink:href="#T"/><use transform="matrix(0.015190972222222222,0,0,0.015190972222222222,140.1974826388889,0)" xlink:href="#J"/><use transform="matrix(0.015190972222222222,0,0,0.015190972222222222,150.98307291666669,0)" xlink:href="#P"/></g><g id="v"><use transform="matrix(0.015190972222222222,0,0,0.015190972222222222,0,0)" xlink:href="#M"/><use transform="matrix(0.015190972222222222,0,0,0.015190972222222222,22.725694444444443,0)" xlink:href="#X"/><use transform="matrix(0.015190972222222222,0,0,0.015190972222222222,40.86371527777777,0)" xlink:href="#S"/><use transform="matrix(0.015190972222222222,0,0,0.015190972222222222,59.24479166666666,0)" xlink:href="#V"/><use transform="matrix(0.015190972222222222,0,0,0.015190972222222222,75.66623263888889,0)" xlink:href="#R"/><use transform="matrix(0.015190972222222222,0,0,0.015190972222222222,94.0625,0)" xlink:href="#V"/></g><g id="w"><use transform="matrix(0.015190972222222222,0,0,0.015190972222222222,0,0)" xlink:href="#au"/><use transform="matrix(0.015190972222222222,0,0,0.015190972222222222,22.452256944444443,0)" xlink:href="#K"/><use transform="matrix(0.015190972222222222,0,0,0.015190972222222222,39.921875,0)" xlink:href="#J"/><use transform="matrix(0.015190972222222222,0,0,0.015190972222222222,50.251736111111114,0)" xlink:href="#K"/></g><path d="M798-719v166H144v-166h654" id="aw"/><g id="x"><use transform="matrix(0.015190972222222222,0,0,0.015190972222222222,0,0)" xlink:href="#ac"/><use transform="matrix(0.015190972222222222,0,0,0.015190972222222222,18.39626736111111,0)" xlink:href="#N"/><use transform="matrix(0.015190972222222222,0,0,0.015190972222222222,37.05078125,0)" xlink:href="#R"/><use transform="matrix(0.015190972222222222,0,0,0.015190972222222222,55.447048611111114,0)" xlink:href="#V"/><use transform="matrix(0.015190972222222222,0,0,0.015190972222222222,71.86848958333334,0)" xlink:href="#T"/><use transform="matrix(0.015190972222222222,0,0,0.015190972222222222,79.40321180555557,0)" xlink:href="#S"/><use transform="matrix(0.015190972222222222,0,0,0.015190972222222222,97.78428819444446,0)" xlink:href="#at"/><use transform="matrix(0.015190972222222222,0,0,0.015190972222222222,116.86414930555557,0)" xlink:href="#aw"/><use transform="matrix(0.015190972222222222,0,0,0.015190972222222222,131.1740451388889,0)" xlink:href="#K"/><use transform="matrix(0.015190972222222222,0,0,0.015190972222222222,148.64366319444446,0)" xlink:href="#L"/><use transform="matrix(0.015190972222222222,0,0,0.015190972222222222,159.83940972222226,0)" xlink:href="#ab"/><use transform="matrix(0.015190972222222222,0,0,0.015190972222222222,177.61284722222226,0)" xlink:href="#ac"/><use transform="matrix(0.015190972222222222,0,0,0.015190972222222222,196.00911458333337,0)" xlink:href="#X"/><use transform="matrix(0.015190972222222222,0,0,0.015190972222222222,214.1471354166667,0)" xlink:href="#J"/><use transform="matrix(0.015190972222222222,0,0,0.015190972222222222,224.93272569444449,0)" xlink:href="#P"/><use transform="matrix(0.015190972222222222,0,0,0.015190972222222222,242.41753472222226,0)" xlink:href="#O"/><use transform="matrix(0.015190972222222222,0,0,0.015190972222222222,261.4670138888889,0)" xlink:href="#X"/><use transform="matrix(0.015190972222222222,0,0,0.015190972222222222,279.60503472222223,0)" xlink:href="#V"/></g><path d="M677 24c-213 0-288-135-325-197h-20V0H158v-1490h180v551h14c37-59 106-193 324-193 279 0 474 222 474 576 0 356-194 580-473 580zm-27-161c209 0 317-186 317-421 0-232-105-413-317-413-206 0-314 166-314 413 0 249 111 421 314 421" id="ax"/><path d="M409 0L70-1118h191c89 329 165 560 243 925 75-353 154-601 240-925h192c85 325 161 564 235 922 77-354 157-598 244-922h191L1267 0h-179c-86-307-176-590-250-913C763-588 675-308 588 0H409" id="ay"/><g id="y"><use transform="matrix(0.015190972222222222,0,0,0.015190972222222222,0,0)" xlink:href="#ax"/><use transform="matrix(0.015190972222222222,0,0,0.015190972222222222,19.049479166666668,0)" xlink:href="#J"/><use transform="matrix(0.015190972222222222,0,0,0.015190972222222222,29.37934027777778,0)" xlink:href="#K"/><use transform="matrix(0.015190972222222222,0,0,0.015190972222222222,46.84895833333333,0)" xlink:href="#O"/><use transform="matrix(0.015190972222222222,0,0,0.015190972222222222,65.8984375,0)" xlink:href="#aw"/><use transform="matrix(0.015190972222222222,0,0,0.015190972222222222,80.20833333333333,0)" xlink:href="#ay"/><use transform="matrix(0.015190972222222222,0,0,0.015190972222222222,105.10633680555554,0)" xlink:href="#X"/><use transform="matrix(0.015190972222222222,0,0,0.015190972222222222,123.54817708333331,0)" xlink:href="#K"/><use transform="matrix(0.015190972222222222,0,0,0.015190972222222222,141.01779513888886,0)" xlink:href="#J"/><use transform="matrix(0.015190972222222222,0,0,0.015190972222222222,151.19574652777774,0)" xlink:href="#ac"/><use transform="matrix(0.015190972222222222,0,0,0.015190972222222222,169.59201388888886,0)" xlink:href="#X"/><use transform="matrix(0.015190972222222222,0,0,0.015190972222222222,187.7300347222222,0)" xlink:href="#L"/></g><g id="z"><use transform="matrix(0.015190972222222222,0,0,0.015190972222222222,0,0)" xlink:href="#I"/><use transform="matrix(0.015190972222222222,0,0,0.015190972222222222,19.9609375,0)" xlink:href="#O"/><use transform="matrix(0.015190972222222222,0,0,0.015190972222222222,39.01041666666667,0)" xlink:href="#X"/><use transform="matrix(0.015190972222222222,0,0,0.015190972222222222,57.1484375,0)" xlink:href="#ab"/><use transform="matrix(0.015190972222222222,0,0,0.015190972222222222,74.921875,0)" xlink:href="#T"/><use transform="matrix(0.015190972222222222,0,0,0.015190972222222222,82.45659722222223,0)" xlink:href="#af"/><use transform="matrix(0.015190972222222222,0,0,0.015190972222222222,93.97135416666667,0)" xlink:href="#P"/></g><g id="A"><use transform="matrix(0.015190972222222222,0,0,0.015190972222222222,0,0)" xlink:href="#M"/><use transform="matrix(0.015190972222222222,0,0,0.015190972222222222,22.725694444444443,0)" xlink:href="#N"/><use transform="matrix(0.015190972222222222,0,0,0.015190972222222222,41.38020833333333,0)" xlink:href="#Q"/><use transform="matrix(0.015190972222222222,0,0,0.015190972222222222,68.6328125,0)" xlink:href="#Q"/><use transform="matrix(0.015190972222222222,0,0,0.015190972222222222,95.88541666666667,0)" xlink:href="#R"/><use transform="matrix(0.015190972222222222,0,0,0.015190972222222222,114.28168402777779,0)" xlink:href="#S"/><use transform="matrix(0.015190972222222222,0,0,0.015190972222222222,132.66276041666669,0)" xlink:href="#T"/><use transform="matrix(0.015190972222222222,0,0,0.015190972222222222,140.1974826388889,0)" xlink:href="#J"/><use transform="matrix(0.015190972222222222,0,0,0.015190972222222222,150.98307291666669,0)" xlink:href="#P"/></g><path fill="#333" d="M601 0v-560L49-1490h357l252 464c38 68 67 130 97 208 96-243 225-446 337-672h356L905-560V0H601" id="az"/><path fill="#333" d="M633 22C291 22 81-200 81-553c0-345 210-579 537-579 292 0 525 185 525 567v84H378c7 183 109 277 260 277 105 0 184-46 216-132l272 51C1071-99 893 22 633 22zM380-669h474c-15-146-94-237-233-237-143 0-229 99-241 237" id="aA"/><path fill="#333" d="M572 22C302 22 117-98 78-306l279-48c29 105 101 156 224 156 114 0 185-48 185-115 0-118-228-130-337-155-215-49-322-150-322-317 0-215 187-347 470-347 265 0 424 116 466 298l-266 47c-24-76-87-130-196-130-98 0-174 46-174 113 0 56 38 95 144 117l201 40c216 44 320 143 320 302 0 220-207 367-500 367" id="aB"/><g id="B"><use transform="matrix(0.008680555555555556,0,0,0.008680555555555556,0,0)" xlink:href="#az"/><use transform="matrix(0.008680555555555556,0,0,0.008680555555555556,11.050347222222223,0)" xlink:href="#aA"/><use transform="matrix(0.008680555555555556,0,0,0.008680555555555556,21.640625,0)" xlink:href="#aB"/></g><path fill="#333" d="M135 0v-1490h340l471 754c59 97 122 210 187 365-32-387-14-721-19-1119h312V0h-341C855-382 627-689 427-1113c32 420 16 695 20 1113H135" id="aC"/><path fill="#333" d="M628 22C291 22 81-210 81-554c0-346 210-578 547-578 336 0 547 232 547 578 0 344-211 576-547 576zm0-236c160 0 242-146 242-341 0-197-82-341-242-341S387-753 387-555c0 195 81 341 241 341" id="aD"/><g id="C"><use transform="matrix(0.008680555555555556,0,0,0.008680555555555556,0,0)" xlink:href="#aC"/><use transform="matrix(0.008680555555555556,0,0,0.008680555555555556,13.550347222222223,0)" xlink:href="#aD"/></g><path d="M763 24c-353 0-583-224-583-531v-983h190v968c0 214 149 370 393 370 243 0 391-156 391-370v-968h190v983c0 307-230 531-581 531" id="aE"/><g id="D"><use transform="matrix(0.015190972222222222,0,0,0.015190972222222222,0,0)" xlink:href="#aE"/><use transform="matrix(0.015190972222222222,0,0,0.015190972222222222,23.151041666666668,0)" xlink:href="#O"/><use transform="matrix(0.015190972222222222,0,0,0.015190972222222222,42.200520833333336,0)" xlink:href="#Z"/><use transform="matrix(0.015190972222222222,0,0,0.015190972222222222,61.25,0)" xlink:href="#K"/><use transform="matrix(0.015190972222222222,0,0,0.015190972222222222,78.71961805555556,0)" xlink:href="#J"/><use transform="matrix(0.015190972222222222,0,0,0.015190972222222222,88.59375,0)" xlink:href="#X"/></g><g id="E"><use transform="matrix(0.015190972222222222,0,0,0.015190972222222222,0,0)" xlink:href="#ad"/><use transform="matrix(0.015190972222222222,0,0,0.015190972222222222,29.075520833333332,0)" xlink:href="#X"/><use transform="matrix(0.015190972222222222,0,0,0.015190972222222222,47.51736111111111,0)" xlink:href="#K"/><use transform="matrix(0.015190972222222222,0,0,0.015190972222222222,64.98697916666666,0)" xlink:href="#J"/><use transform="matrix(0.015190972222222222,0,0,0.015190972222222222,75.16493055555554,0)" xlink:href="#ac"/><use transform="matrix(0.015190972222222222,0,0,0.015190972222222222,93.56119791666666,0)" xlink:href="#X"/><use transform="matrix(0.015190972222222222,0,0,0.015190972222222222,111.69921874999999,0)" xlink:href="#L"/></g><path d="M180 0v-1490h190v1322h690V0H180" id="aF"/><g id="F"><use transform="matrix(0.015190972222222222,0,0,0.015190972222222222,0,0)" xlink:href="#aF"/><use transform="matrix(0.015190972222222222,0,0,0.015190972222222222,17.591145833333332,0)" xlink:href="#N"/><use transform="matrix(0.015190972222222222,0,0,0.015190972222222222,36.24565972222222,0)" xlink:href="#ab"/><use transform="matrix(0.015190972222222222,0,0,0.015190972222222222,54.322916666666664,0)" xlink:href="#K"/><use transform="matrix(0.015190972222222222,0,0,0.015190972222222222,71.79253472222221,0)" xlink:href="#J"/><use transform="matrix(0.015190972222222222,0,0,0.015190972222222222,81.9704861111111,0)" xlink:href="#T"/><use transform="matrix(0.015190972222222222,0,0,0.015190972222222222,89.50520833333333,0)" xlink:href="#N"/><use transform="matrix(0.015190972222222222,0,0,0.015190972222222222,108.15972222222221,0)" xlink:href="#S"/></g><g id="G"><use transform="matrix(0.015190972222222222,0,0,0.015190972222222222,0,0)" xlink:href="#ar"/><use transform="matrix(0.015190972222222222,0,0,0.015190972222222222,23.7890625,0)" xlink:href="#R"/><use transform="matrix(0.015190972222222222,0,0,0.015190972222222222,42.185329861111114,0)" xlink:href="#J"/><use transform="matrix(0.015190972222222222,0,0,0.015190972222222222,52.36328125,0)" xlink:href="#O"/><use transform="matrix(0.015190972222222222,0,0,0.015190972222222222,71.41276041666667,0)" xlink:href="#R"/><use transform="matrix(0.015190972222222222,0,0,0.015190972222222222,89.80902777777779,0)" xlink:href="#J"/></g><g id="H"><use transform="matrix(0.015190972222222222,0,0,0.015190972222222222,0,0)" xlink:href="#W"/><use transform="matrix(0.015190972222222222,0,0,0.015190972222222222,19.56597222222222,0)" xlink:href="#X"/><use transform="matrix(0.015190972222222222,0,0,0.015190972222222222,37.70399305555556,0)" xlink:href="#V"/><use transform="matrix(0.015190972222222222,0,0,0.015190972222222222,54.12543402777778,0)" xlink:href="#R"/><use transform="matrix(0.015190972222222222,0,0,0.015190972222222222,72.52170138888889,0)" xlink:href="#aq"/><use transform="matrix(0.015190972222222222,0,0,0.015190972222222222,80.51215277777779,0)" xlink:href="#J"/><use transform="matrix(0.015190972222222222,0,0,0.015190972222222222,90.38628472222223,0)" xlink:href="#V"/></g></defs></g></svg>